<?xml version="1.0" encoding="UTF-8" standalone="no"?>
<!DOCTYPE svg PUBLIC "-//W3C//DTD SVG 1.1//EN"
 "http://www.w3.org/Graphics/SVG/1.1/DTD/svg11.dtd">
<!-- Generated by graphviz version 12.2.1 (20241206.2353)
 -->
<!-- Title: DotnetVisualizer Pages: 1 -->
<svg width="482pt" height="67pt"
 viewBox="0.00 0.00 482.00 67.00" xmlns="http://www.w3.org/2000/svg" xmlns:xlink="http://www.w3.org/1999/xlink">
<g id="graph0" class="graph" transform="scale(1 1) rotate(0) translate(4 63)">
<title>DotnetVisualizer</title>
<polygon fill="white" stroke="none" points="-4,4 -4,-63 478,-63 478,4 -4,4"/>
<!-- DotnetVisualizer.Cli -->
<g id="node1" class="node">
<title>DotnetVisualizer.Cli</title>
<polygon fill="#1e90ff" stroke="black" points="301.25,-59 174.25,-59 174.25,-23 301.25,-23 301.25,-59"/>
<text text-anchor="middle" x="237.75" y="-35.95" font-family="Times New Roman,serif" font-size="14.00">DotnetVisualizer.Cli</text>
</g>
<!-- DotnetVisualizer.Core -->
<g id="node2" class="node">
<title>DotnetVisualizer.Core</title>
<polygon fill="#1e90ff" stroke="black" points="474,-36 337.25,-36 337.25,0 474,0 474,-36"/>
<text text-anchor="middle" x="405.62" y="-12.95" font-family="Times New Roman,serif" font-size="14.00">DotnetVisualizer.Core</text>
</g>
<!-- DotnetVisualizer.Cli&#45;&gt;DotnetVisualizer.Core -->
<g id="edge1" class="edge">
<title>DotnetVisualizer.Cli&#45;&gt;DotnetVisualizer.Core</title>
<path fill="none" stroke="black" d="M301.46,-32.3C309.32,-31.22 317.43,-30.09 325.5,-28.97"/>
<polygon fill="black" stroke="black" points="325.92,-32.45 335.34,-27.61 324.95,-25.51 325.92,-32.45"/>
</g>
<!-- DotnetVisualizer.Tests -->
<g id="node3" class="node">
<title>DotnetVisualizer.Tests</title>
<polygon fill="#3cb371" stroke="black" points="138.25,-36 0,-36 0,0 138.25,0 138.25,-36"/>
<text text-anchor="middle" x="69.12" y="-12.95" font-family="Times New Roman,serif" font-size="14.00">DotnetVisualizer.Tests</text>
</g>
<!-- DotnetVisualizer.Tests&#45;&gt;DotnetVisualizer.Cli -->
<g id="edge3" class="edge">
<title>DotnetVisualizer.Tests&#45;&gt;DotnetVisualizer.Cli</title>
<path fill="none" stroke="black" d="M138.38,-27.42C146.38,-28.53 154.57,-29.66 162.65,-30.77"/>
<polygon fill="black" stroke="black" points="162.08,-34.23 172.46,-32.13 163.03,-27.29 162.08,-34.23"/>
</g>
<!-- DotnetVisualizer.Tests&#45;&gt;DotnetVisualizer.Core -->
<g id="edge2" class="edge">
<title>DotnetVisualizer.Tests&#45;&gt;DotnetVisualizer.Core</title>
<path fill="none" stroke="black" d="M138.73,-14.99C150.57,-14.58 162.76,-14.22 174.25,-14 230.68,-12.92 244.82,-12.91 301.25,-14 309.06,-14.15 317.2,-14.37 325.34,-14.62"/>
<polygon fill="black" stroke="black" points="325.17,-18.12 335.28,-14.95 325.41,-11.12 325.17,-18.12"/>
</g>
</g>
</svg>
